# xmcd
#
# Track frame offsets: 
#        150
#        12380
#        30457
#        45551
#        62624
#        78430
#        95527
#
# Disc length: 1560 seconds
#
# Revision: 0
# Processed by: cddbd v1.5.2PL0 Copyright (c) Steve Scherf et al.
# Submitted via: ExactAudioCopy v0.95b4
#
DISCID=4b061607
DTITLE=Lorena Miré - Kid In A Candy Store
DYEAR=2006
DGENRE=
TTITLE0=Kid In A Candy Store
TTITLE1=Movies In My Head
TTITLE2=Hide-n-Seek
TTITLE3=Everything (I Belong)
TTITLE4=Waking Hour
TTITLE5=Shaking You
TTITLE6=What I Really Meant
EXTD=
EXTT0=
EXTT1=
EXTT2=
EXTT3=
EXTT4=
EXTT5=
EXTT6=
PLAYORDER=
